<svg aria-hidden="true" style="position:absolute;width:0;height:0" xmlns="http://www.w3.org/2000/svg" overflow="hidden"><defs><symbol id="icon-svg-1" viewBox="0 0 28 32"><path d="M0 0h28v32H0V0z"/></symbol><symbol id="icon-svg-2" viewBox="0 0 29 32"><path d="M0 0h28.903v32H0V0z"/></symbol><symbol id="icon-svg-3" viewBox="0 0 30 32"><path d="M0 0h30.118v32H0V0z"/></symbol><symbol id="icon-company-logo-black" viewBox="0 0 143 32"><path fill="var(--color1, #171819)" d="M6.33 18.31l-1.385 2.607v8.756H.465V1.164h4.48v12.422L10.81 1.164h4.48L9.059 13.871l6.231 15.802h-4.602L6.33 18.31zm15.284 4.806c0 1.032.21 1.758.631 2.179s.984.631 1.69.631 1.269-.21 1.69-.631.631-1.147.631-2.179V7.721c0-1.032-.21-1.758-.631-2.179s-.984-.631-1.69-.631-1.269.21-1.69.631-.631 1.147-.631 2.179v15.395zm-4.48-15.11c0-2.308.584-4.08 1.751-5.315S21.736.838 23.935.838s3.883.618 5.05 1.853 1.751 3.007 1.751 5.315v14.825c0 2.308-.584 4.08-1.751 5.315s-2.851 1.853-5.05 1.853-3.883-.618-5.05-1.853-1.751-3.007-1.751-5.315V8.006zM38.08 9.024v20.649h-4.032V1.164h5.62l4.602 17.065V1.164h3.991v28.509h-4.602l-5.58-20.649zm13.289-1.018c0-2.308.55-4.08 1.649-5.315S55.767.838 57.966.838c2.199 0 3.849.618 4.948 1.853s1.649 3.007 1.649 5.315v.896h-4.236V7.721c0-1.032-.197-1.758-.591-2.179s-.944-.631-1.65-.631-1.256.21-1.649.631-.591 1.147-.591 2.179c0 .977.217 1.84.652 2.586s.977 1.453 1.629 2.118c.652.665 1.351 1.33 2.098 1.996s1.446 1.392 2.097 2.179 1.194 1.683 1.629 2.688c.434 1.005.652 2.186.652 3.543 0 2.308-.564 4.08-1.69 5.315s-2.79 1.853-4.989 1.853-3.862-.618-4.989-1.853-1.69-3.007-1.69-5.315V21.08h4.236v2.036c0 1.032.21 1.751.631 2.159s.984.611 1.69.611 1.269-.204 1.69-.611.631-1.127.631-2.159c0-.977-.218-1.84-.652-2.586s-.977-1.453-1.629-2.118c-.652-.665-1.351-1.33-2.097-1.996s-1.446-1.392-2.097-2.179c-.652-.787-1.195-1.683-1.629-2.688s-.652-2.186-.652-3.543zm14.958-6.842h13.847v4.073H75.49v24.436h-4.48V5.237h-4.684V1.164zm25.629 28.509c-.055-.19-.109-.367-.163-.529s-.102-.367-.143-.611-.068-.557-.081-.937c-.014-.38-.02-.855-.02-1.425v-4.48c0-1.33-.231-2.267-.692-2.81s-1.208-.815-2.24-.815h-1.548v11.607h-4.48V1.164h6.761c2.335 0 4.025.543 5.071 1.629s1.568 2.729 1.568 4.928v2.24c0 2.932-.977 4.86-2.932 5.783 1.14.462 1.921 1.215 2.342 2.26s.631 2.315.631 3.808v4.399c0 .706.027 1.324.081 1.853s.19 1.066.407 1.609h-4.561zM87.069 5.236v8.756h1.751c.841 0 1.5-.217 1.975-.652s.713-1.222.713-2.362v-2.81c0-1.032-.183-1.778-.55-2.24s-.944-.692-1.731-.692h-2.159zm16.628-4.072v21.993c0 1.032.21 1.751.631 2.159s.984.611 1.69.611 1.269-.204 1.69-.611.631-1.127.631-2.159V1.164h4.236v21.708c0 2.308-.564 4.08-1.69 5.315s-2.79 1.853-4.989 1.853-3.863-.618-4.989-1.853c-1.127-1.235-1.69-3.007-1.69-5.315V1.164h4.48zm24.635 0h13.847v4.073h-4.684v24.436h-4.48V5.237h-4.684V1.164z"/><path fill="var(--color2, #00a4e5)" d="M114.704 15.979L126.34 1.434v29.091L114.704 15.98z"/></symbol><symbol id="icon-company-logo-white" viewBox="0 0 143 32"><path fill="var(--color3, #fff)" d="M6.33 18.31l-1.385 2.607v8.756H.465V1.164h4.48v12.422L10.81 1.164h4.48L9.059 13.871l6.231 15.802h-4.602L6.33 18.31zm15.284 4.806c0 1.032.21 1.758.631 2.179s.984.631 1.69.631 1.269-.21 1.69-.631.631-1.147.631-2.179V7.721c0-1.032-.21-1.758-.631-2.179s-.984-.631-1.69-.631-1.269.21-1.69.631-.631 1.147-.631 2.179v15.395zm-4.48-15.11c0-2.308.584-4.08 1.751-5.315S21.736.838 23.935.838s3.883.618 5.05 1.853 1.751 3.007 1.751 5.315v14.825c0 2.308-.584 4.08-1.751 5.315s-2.851 1.853-5.05 1.853-3.883-.618-5.05-1.853-1.751-3.007-1.751-5.315V8.006zM38.08 9.024v20.649h-4.032V1.164h5.62l4.602 17.065V1.164h3.991v28.509h-4.602l-5.58-20.649zm13.289-1.018c0-2.308.55-4.08 1.649-5.315S55.767.838 57.966.838c2.199 0 3.849.618 4.948 1.853s1.649 3.007 1.649 5.315v.896h-4.236V7.721c0-1.032-.197-1.758-.591-2.179s-.944-.631-1.65-.631-1.256.21-1.649.631-.591 1.147-.591 2.179c0 .977.217 1.84.652 2.586s.977 1.453 1.629 2.118c.652.665 1.351 1.33 2.098 1.996s1.446 1.392 2.097 2.179 1.194 1.683 1.629 2.688c.434 1.005.652 2.186.652 3.543 0 2.308-.564 4.08-1.69 5.315s-2.79 1.853-4.989 1.853-3.862-.618-4.989-1.853-1.69-3.007-1.69-5.315V21.08h4.236v2.036c0 1.032.21 1.751.631 2.159s.984.611 1.69.611 1.269-.204 1.69-.611.631-1.127.631-2.159c0-.977-.218-1.84-.652-2.586s-.977-1.453-1.629-2.118c-.652-.665-1.351-1.33-2.097-1.996s-1.446-1.392-2.097-2.179c-.652-.787-1.195-1.683-1.629-2.688s-.652-2.186-.652-3.543zm14.958-6.842h13.847v4.073H75.49v24.436h-4.48V5.237h-4.684V1.164zm25.629 28.509c-.055-.19-.109-.367-.163-.529s-.102-.367-.143-.611-.068-.557-.081-.937c-.014-.38-.02-.855-.02-1.425v-4.48c0-1.33-.231-2.267-.692-2.81s-1.208-.815-2.24-.815h-1.548v11.607h-4.48V1.164h6.761c2.335 0 4.025.543 5.071 1.629s1.568 2.729 1.568 4.928v2.24c0 2.932-.977 4.86-2.932 5.783 1.14.462 1.921 1.215 2.342 2.26s.631 2.315.631 3.808v4.399c0 .706.027 1.324.081 1.853s.19 1.066.407 1.609h-4.561zM87.069 5.236v8.756h1.751c.841 0 1.5-.217 1.975-.652s.713-1.222.713-2.362v-2.81c0-1.032-.183-1.778-.55-2.24s-.944-.692-1.731-.692h-2.159zm16.628-4.072v21.993c0 1.032.21 1.751.631 2.159s.984.611 1.69.611 1.269-.204 1.69-.611.631-1.127.631-2.159V1.164h4.236v21.708c0 2.308-.564 4.08-1.69 5.315s-2.79 1.853-4.989 1.853-3.863-.618-4.989-1.853c-1.127-1.235-1.69-3.007-1.69-5.315V1.164h4.48zm24.635 0h13.847v4.073h-4.684v24.436h-4.48V5.237h-4.684V1.164z"/><path fill="var(--color2, #00a4e5)" d="M114.704 15.979L126.34 1.434v29.091L114.704 15.98z"/></symbol></defs></svg>